<?xml version="1.0" encoding="UTF-8"?>
<svg id="Calque_1" data-name="Calque 1" xmlns="http://www.w3.org/2000/svg" viewBox="0 0 76.92 76.92" width="60" height="60">
  <defs>
    <style>
      .cls-1 {
      fill: #f7f7f7;
      }
    </style>
  </defs>
  <path class="cls-1" d="M38.46,0c-5.31,0-10.3,1-14.98,3-4.68,2.01-8.76,4.75-12.24,8.23-3.48,3.48-6.22,7.56-8.23,12.24-2,4.68-3,9.68-3,14.98s1,10.3,3,14.99c2,4.68,4.75,8.76,8.23,12.24,3.48,3.48,7.56,6.22,12.24,8.23,4.68,2,9.68,3,14.98,3s10.3-1,14.98-3c4.68-2,8.76-4.75,12.24-8.23,3.48-3.48,6.22-7.56,8.23-12.24,2-4.68,3-9.68,3-14.99s-1-10.3-3-14.98c-2-4.68-4.75-8.76-8.23-12.24-3.48-3.48-7.56-6.22-12.24-8.23-4.68-2-9.68-3-14.98-3M54.16,40.56l-13.6,13.6c-.45.5-1.01.75-1.69.75s-1.24-.25-1.69-.75c-.5-.45-.75-1.01-.75-1.69s.25-1.24.75-1.69l9.92-9.92h-25.46c-.65,0-1.21-.24-1.69-.71s-.71-1.04-.71-1.69.24-1.21.71-1.69c.48-.48,1.04-.71,1.69-.71h25.46l-9.92-9.92c-.5-.45-.75-1.01-.75-1.69s.25-1.24.75-1.69c.45-.5,1.01-.75,1.69-.75s1.24.25,1.69.75l13.6,13.6c.3.3.5.64.6,1.01.1.38.1.74,0,1.09.1.35.1.71,0,1.09-.1.38-.3.71-.6,1.01"/>
</svg>