<?xml version="1.0" encoding="UTF-8"?>
<svg id="Calque_1" data-name="Calque 1" xmlns="http://www.w3.org/2000/svg" viewBox="0 0 1666.67 442.89">
  <defs>
    <style>
      .cls-1 {
        fill: #f7f7f7;
      }
    </style>
  </defs>
  <path class="cls-1" d="M834.02,17.75h106.72v407.31h-96.77v-55.09l-5.02,6.68c-14.82,19.72-33.6,34.94-55.8,45.24-22.26,10.33-46.49,15.56-71.99,15.56-29.22,0-57.22-7.06-83.22-20.99-25.96-13.9-47.12-34.28-62.9-60.56-15.78-26.28-23.79-58.8-23.79-96.66V17.75h106.02v227.04c0,26.19,8.21,49.55,24.4,69.41,16.34,20.07,39.42,30.25,68.62,30.25,24.3,0,46.2-8.45,65.11-25.12,18.99-16.72,28.62-41.11,28.62-72.48V17.75ZM828.48,246.85c0,29.8-9.02,52.85-26.81,68.51-17.86,15.74-38.51,23.72-61.38,23.72-27.41,0-49.03-9.49-64.26-28.21-15.4-18.9-23.21-41.13-23.21-66.09V12.38h-117.12v246.86c0,38.82,8.26,72.25,24.54,99.36,16.29,27.13,38.16,48.18,65.01,62.56,26.83,14.37,55.74,21.66,85.9,21.66,26.34,0,51.37-5.41,74.39-16.09,20.6-9.55,38.36-23.19,52.87-40.59v44.29h107.87V12.38h-117.82v234.48Z"/>
  <path class="cls-1" d="M1630.62,329.79c-20.26,32.7-47.79,59.11-81.81,78.51-34.02,19.39-72.29,29.22-113.73,29.22s-79.81-9.83-114.06-29.22c-34.22-19.37-61.73-45.64-81.74-78.06l75.84-71.21c2.7,8.41,6.38,16.57,10.96,24.31,11.06,18.64,26.21,33.65,45.04,44.64,18.82,10.98,40.1,16.54,63.25,16.54s45.16-5.57,63.98-16.54c18.76-10.95,33.91-25.97,45.01-44.64,11.09-18.69,16.71-39.51,16.71-61.87s-5.62-43.76-16.72-62.21c-11.12-18.45-26.25-33.46-44.98-44.61-18.86-11.23-40.39-16.92-64-16.92s-44.41,5.69-63.27,16.92c-18.79,11.19-33.94,26.2-45.01,44.61-4.68,7.79-8.4,16.02-11.09,24.52l-75.85-71.22s.04-.06.06-.09c20.02-32.25,47.55-58.43,81.8-77.83,34.25-19.39,72.39-29.22,113.36-29.22s80.41,9.83,114.43,29.21c34.02,19.4,61.54,45.59,81.82,77.84h0c20.23,32.17,30.49,68.84,30.49,108.98s-10.26,75.7-30.5,108.33M1130.19,425.18h-141.77l215.16-197.55c.97,36.87,10.61,71.04,28.72,101.68l-102.11,95.87ZM1130.19,17.74l101.99,95.74c-18.03,30.41-27.64,64.62-28.59,101.8L988.42,17.74h141.77ZM1236.44,325.43c-18.16-31.22-27.39-66.18-27.39-103.97s9.19-73.13,27.26-104.1l81.57,76.59,1.21-4.44c2.61-9.59,6.59-18.86,11.81-27.56,10.61-17.64,25.11-32.02,43.12-42.74,17.97-10.7,38.28-16.12,60.36-16.12s43.12,5.42,61.09,16.12c17.94,10.68,32.44,25.06,43.1,42.74,10.59,17.62,15.96,37.64,15.96,59.5s-5.37,41.34-15.97,59.2c-10.63,17.87-25.12,32.24-43.07,42.72-17.94,10.47-38.5,15.77-61.11,15.77s-42.45-5.3-60.38-15.77c-18.01-10.51-32.51-24.88-43.09-42.71-5.13-8.66-9.08-17.87-11.72-27.37l-1.22-4.41-81.52,76.55ZM1635.37,109.7c-20.75-33.02-48.93-59.83-83.74-79.68C1516.73,10.14,1477.29.06,1434.38.06s-81.05,10.08-116.16,29.96c-34.73,19.66-62.7,46.16-83.13,78.72l-101.84-95.61-.81-.76h-157.93l227.73,209.09-227.73,209.09h157.93l102.77-96.49c20.45,32.72,48.36,59.25,83.01,78.87,35.11,19.88,74.43,29.96,116.86,29.96s81.65-10.08,116.54-29.96c34.83-19.86,63.01-46.9,83.75-80.38,20.76-33.48,31.29-70.85,31.29-111.09s-10.53-78.75-31.3-111.77"/>
  <path class="cls-1" d="M356.58,41.36v-23.61h101.04v407.31h-101.04v-23.61l-4.26,2.62c-2.54,1.56-4.84,2.93-7.03,4.17-34.01,19.38-72.26,29.21-113.71,29.21s-79.83-9.83-114.07-29.21c-34.25-19.39-61.78-45.68-81.81-78.16-20.02-32.43-30.16-68.99-30.16-108.67s10.15-76.81,30.16-109.01c20.02-32.24,47.55-58.42,81.81-77.82C151.75,15.2,189.89,5.37,230.87,5.37s80.42,9.82,114.42,29.2c2.19,1.25,4.49,2.61,7.03,4.17l4.26,2.61ZM351.03,31.64c-1-.59-1.97-1.15-2.92-1.7C313.24,10.08,273.8,0,230.87,0s-81.06,10.07-116.16,29.94c-35.07,19.86-63.25,46.67-83.76,79.69C10.41,142.68,0,180.29,0,221.41s10.41,78.15,30.95,111.42c20.51,33.26,48.7,60.19,83.77,80.04,35.1,19.87,74.42,29.94,116.87,29.94s81.65-10.08,116.52-29.95c.95-.54,1.92-1.11,2.92-1.7v19.27h112.14V12.38h-112.14v19.26Z"/>
  <path class="cls-1" d="M335.06,280.59c-10.62,17.87-25.12,32.24-43.08,42.72-17.94,10.47-38.5,15.78-61.1,15.78s-42.44-5.31-60.39-15.78c-17.98-10.48-32.48-24.85-43.08-42.72-10.6-17.82-15.97-37.74-15.97-59.19s5.37-41.91,15.97-59.52c10.61-17.64,25.11-32.02,43.11-42.74,17.95-10.69,38.26-16.11,60.37-16.11s43.14,5.42,61.08,16.11c17.98,10.71,32.49,25.09,43.11,42.74,10.6,17.63,15.97,37.65,15.97,59.52s-5.37,41.35-15.98,59.19M294.86,114.57c-18.83-11.22-40.36-16.9-63.99-16.9s-44.44,5.69-63.28,16.9c-18.78,11.19-33.92,26.2-45,44.61-11.09,18.44-16.72,39.37-16.72,62.22s5.63,43.22,16.71,61.86c11.08,18.66,26.23,33.68,45.03,44.64,18.82,10.98,40.1,16.55,63.25,16.55s45.15-5.57,63.96-16.55c18.78-10.95,33.93-25.96,45.03-44.64h0c11.09-18.67,16.71-39.48,16.71-61.87s-5.63-43.76-16.72-62.22c-11.09-18.42-26.23-33.43-45-44.61"/>
</svg>