<?xml version="1.0" encoding="UTF-8"?>
<svg id="Calque_1" data-name="Calque 1" xmlns="http://www.w3.org/2000/svg" viewBox="0 0 292.15 127.77">
  <defs>
    <style>
      .cls-1 {
        fill: #467d65;
      }
    </style>
  </defs>
  <path class="cls-1" d="M292.15,63.61L225.08,0l-67.07,63.62c0,.11,0,.23,0,.34,0,.06,0,.13,0,.19l67.07,63.61,67.07-63.62c0-.12,0-.23,0-.34,0-.06,0-.13,0-.19"/>
  <path class="cls-1" d="M108.2,48.79c-1.22-4.53-3.02-8.87-5.39-13-.28-.49-.59-.95-.88-1.43-3.71-5.99-8.31-11.12-13.82-15.36-1.63-1.24-3.31-2.41-5.1-3.48-8.3-5-17.56-7.5-27.77-7.5s-19.8,2.5-28.1,7.5c-8.3,5-14.89,11.76-19.79,20.28C2.45,44.3,0,53.66,0,63.89c0,5.32.64,10.39,1.92,15.18h0c1.22,4.53,3.02,8.86,5.39,13,.28.49.59.95.88,1.43,3.71,5.99,8.31,11.12,13.82,15.36,1.63,1.24,3.32,2.41,5.1,3.48,8.3,5,17.56,7.5,27.78,7.5s19.8-2.5,28.1-7.5c8.3-5,14.89-11.76,19.79-20.28,4.89-8.52,7.34-17.88,7.34-28.1,0-5.32-.64-10.38-1.92-15.18h0Z"/>
</svg>